<?xml version="1.0" encoding="UTF-8"?><svg xmlns="http://www.w3.org/2000/svg" xmlns:xlink="http://www.w3.org/1999/xlink" fill-opacity="1" color-rendering="auto" color-interpolation="auto" text-rendering="auto" stroke="black" stroke-linecap="square" width="200" stroke-miterlimit="10" shape-rendering="auto" stroke-opacity="1" fill="black" stroke-dasharray="none" font-weight="normal" stroke-width="1" height="406" font-family="'Dialog'" font-style="normal" stroke-linejoin="miter" font-size="12px" stroke-dashoffset="0" image-rendering="auto">
  <!--Generated by ySVG 2.6-->
  <defs id="genericDefs"/>
  <g>
    <defs id="defs1">
      <clipPath clipPathUnits="userSpaceOnUse" id="clipPath1">
        <path d="M0 0 L200 0 L200 406 L0 406 L0 0 Z"/>
      </clipPath>
      <clipPath clipPathUnits="userSpaceOnUse" id="clipPath2">
        <path d="M530 217 L730 217 L730 623 L530 623 L530 217 Z"/>
      </clipPath>
    </defs>
    <g fill="white" text-rendering="geometricPrecision" shape-rendering="geometricPrecision" transform="translate(-530,-217)" stroke="white">
      <rect x="530" width="200" height="406" y="217" clip-path="url(#clipPath2)" stroke="none"/>
    </g>
    <g text-rendering="geometricPrecision" stroke-miterlimit="1.45" shape-rendering="geometricPrecision" transform="matrix(1,0,0,1,-530,-217)" stroke-linecap="butt">
      <rect x="545" y="232.5" clip-path="url(#clipPath2)" fill="none" width="170" rx="37.5" ry="37.5" height="75"/>
      <text x="614.4414" font-size="16px" y="275.5469" clip-path="url(#clipPath2)" font-family="'Liberation Sans'" stroke="none" xml:space="preserve">Text</text>
    </g>
    <g text-rendering="geometricPrecision" stroke-miterlimit="1.45" shape-rendering="geometricPrecision" transform="matrix(1,0,0,1,-530,-217)" stroke-linecap="butt">
      <rect x="545" y="532.5" clip-path="url(#clipPath2)" fill="none" width="170" rx="37.5" ry="37.5" height="75"/>
      <text x="614.4414" font-size="16px" y="575.5469" clip-path="url(#clipPath2)" font-family="'Liberation Sans'" stroke="none" xml:space="preserve">Text</text>
    </g>
    <g text-rendering="geometricPrecision" stroke-miterlimit="1.45" shape-rendering="geometricPrecision" transform="matrix(1,0,0,1,-530,-217)" stroke-linecap="butt">
      <path fill="none" d="M545 382.5 L715 382.5 L715 457.5 L545 457.5 Z" clip-path="url(#clipPath2)"/>
      <text x="614.4414" font-size="16px" y="425.5469" clip-path="url(#clipPath2)" font-family="'Liberation Sans'" stroke="none" xml:space="preserve">Text</text>
    </g>
    <g text-rendering="geometricPrecision" stroke-miterlimit="1.45" shape-rendering="geometricPrecision" transform="matrix(1,0,0,1,-530,-217)" stroke-linecap="butt">
      <path fill="none" d="M630 307.4634 L630 374.4969" clip-path="url(#clipPath2)"/>
    </g>
    <g text-rendering="geometricPrecision" stroke-miterlimit="1.45" shape-rendering="geometricPrecision" transform="matrix(1,0,0,1,-530,-217)" stroke-linecap="butt">
      <path d="M630 382.4969 L635 370.4969 L630 373.4969 L625 370.4969 Z" stroke="none" clip-path="url(#clipPath2)"/>
      <path fill="none" d="M630 457.4634 L630 524.4969" clip-path="url(#clipPath2)"/>
      <path d="M630 532.4969 L635 520.4969 L630 523.4969 L625 520.4969 Z" clip-path="url(#clipPath2)" stroke="none"/>
    </g>
  </g>
</svg>
